<svg width="33" height="33" xmlns="http://www.w3.org/2000/svg">

 <g>
  <title>background</title>
  <rect fill="none" id="canvas_background" height="35" width="35" y="-1" x="-1"/>
 </g>
 <g>
  <title>Layer 1</title>
  <g stroke="null" id="svg_1">
   <path stroke="null" id="svg_2" d="m16.500001,0.048124c-9.071668,0 -16.451877,7.380209 -16.451877,16.451877s7.380209,16.451877 16.451877,16.451877s16.451877,-7.380209 16.451877,-16.451877s-7.380209,-16.451877 -16.451877,-16.451877zm14.395392,16.453933c-3.994721,-1.041095 -7.480977,-1.083253 -10.4891,-0.512065c-0.439574,-1.012305 -0.891486,-1.989135 -1.349568,-2.920208c3.157218,-1.269365 6.147346,-3.138195 8.451123,-5.829105c2.110467,2.505312 3.387544,5.735021 3.387544,9.259322c0,0.001028 0,0.001028 0,0.002056zm-4.820914,-10.722511c-2.108925,2.518165 -4.953557,4.243556 -7.968878,5.423464c-2.115608,-4.009631 -4.181347,-7.02598 -5.324753,-8.593535c1.188648,-0.319269 2.431793,-0.504867 3.719152,-0.504867c3.678023,0 7.027008,1.397895 9.574478,3.674938zm-15.334177,-2.463154c0.927989,1.248286 3.110947,4.3289 5.37925,8.583252c-5.618316,1.750068 -11.369789,1.843638 -13.734746,1.79017c0.925932,-4.658452 4.107828,-8.510761 8.355497,-10.373422zm-8.635693,13.183608c0,-0.253976 0.02622,-0.501268 0.038045,-0.752159c0.384563,0.012853 0.859611,0.023135 1.417946,0.023135c3.004524,0 8.312311,-0.295106 13.524985,-1.991191c0.429805,0.866808 0.855498,1.771147 1.27245,2.710961c-6.912359,2.07962 -10.914792,7.330339 -12.436076,9.737969c-2.361358,-2.56495 -3.817349,-5.976144 -3.817349,-9.728714zm5.325781,11.165169c1.124897,-1.957259 4.795722,-7.394604 11.715278,-9.320502c1.396867,3.436386 2.594769,7.255792 3.262613,11.268507c-1.805593,0.816424 -3.801412,1.282218 -5.90828,1.282218c-3.436386,0 -6.591033,-1.21384 -9.069611,-3.230223zm16.888879,0.904853c-0.689951,-3.803468 -1.814334,-7.406429 -3.114032,-10.669042c2.729469,-0.43289 5.892342,-0.310529 9.521524,0.685838c-0.610776,4.177234 -3.010693,7.775054 -6.407492,9.983204z" fill="#363636"/>
  </g>
 </g>
</svg>