<svg width="33" height="33" xmlns="http://www.w3.org/2000/svg">

 <g>
  <title>background</title>
  <rect fill="none" id="canvas_background" height="35" width="35" y="-1" x="-1"/>
 </g>
 <g>
  <title>Layer 1</title>
  <g stroke="null" id="svg_1">
   <g stroke="null" id="svg_2">
    <path stroke="null" id="svg_3" fill="#363636" d="m32.850626,16.55435c0,-9.060049 -7.344979,-16.404974 -16.404974,-16.404974c-9.060049,0 -16.404974,7.344925 -16.404974,16.404974c0,9.059995 7.344925,16.404974 16.404974,16.404974c9.059995,0 16.404974,-7.344979 16.404974,-16.404974zm-31.318596,0c0,-8.236798 6.676824,-14.913622 14.913622,-14.913622s14.913622,6.676824 14.913622,14.913622s-6.676824,14.913622 -14.913622,14.913622s-14.913622,-6.676824 -14.913622,-14.913622z"/>
    <path stroke="null" id="svg_4" fill="#363636" d="m17.074991,26.022969l0,-9.468619l3.124397,0l0.49365,-3.1378l-3.618047,0l0,-1.573376c0,-0.818748 0.26843,-1.600236 1.443638,-1.600236l2.34886,0l0,-3.131849l-3.334659,0c-2.803749,0 -3.568832,1.846257 -3.568832,4.405486l0,1.898527l-1.923832,0l0,3.139247l1.923832,0l0,9.468619l3.110994,0l0,0z"/>
   </g>
  </g>
  <g id="svg_5"/>
  <g id="svg_6"/>
  <g id="svg_7"/>
  <g id="svg_8"/>
  <g id="svg_9"/>
  <g id="svg_10"/>
  <g id="svg_11"/>
  <g id="svg_12"/>
  <g id="svg_13"/>
  <g id="svg_14"/>
  <g id="svg_15"/>
  <g id="svg_16"/>
  <g id="svg_17"/>
  <g id="svg_18"/>
  <g id="svg_19"/>
 </g>
</svg>