<svg width="33" height="33" xmlns="http://www.w3.org/2000/svg">
 <!-- Created with Method Draw - http://github.com/duopixel/Method-Draw/ -->

 <g>
  <title>background</title>
  <rect fill="none" id="canvas_background" height="35" width="35" y="-1" x="-1"/>
 </g>
 <g>
  <title>Layer 1</title>
  <g stroke="null" id="svg_25">
   <g stroke="null" transform="matrix(0.05352244316038709,0,0,0.05352244316038709,315.88948568825793,205.31332285427442) " id="svg_5">
    <g stroke="null" id="svg_6">
     <path stroke="null" id="svg_7" fill="#363636" d="m-5550.572165,-3431.489665c0,-30.016 -17.387,-44.815 -36.525,-60.922l-15.662,-12.185c-4.785,-3.895 -11.294,-9.124 -11.294,-18.693c0,-9.57 6.537,-15.662 12.184,-21.309c18.249,-14.354 36.526,-29.571 36.526,-61.756c0,-33.076 -20.892,-50.462 -30.878,-58.724l0,0l26.956,0l27.818,-15.662l-89.603,0c-23.479,0 -53.049,3.478 -77.863,23.924c-18.693,16.079 -27.818,38.278 -27.818,58.279c0,33.911 26.093,68.294 72.188,68.294c4.368,0 9.125,-0.445 13.937,-0.863c-2.17,5.23 -4.34,9.569 -4.34,16.97c0,13.464 6.955,21.753 13.047,29.57c-19.556,1.308 -56.109,3.478 -83.065,20.001c-25.676,15.217 -33.493,37.416 -33.493,53.077c0,32.186 30.461,62.201 93.525,62.201c74.775,0.001 114.36,-41.337 114.36,-82.202zm-93.525,-110.911c-37.415,0 -54.384,-48.292 -54.384,-77.418c0,-11.322 2.17,-23.034 9.569,-32.186c6.955,-8.707 19.139,-14.382 30.461,-14.382c36.108,0 54.802,48.738 54.802,80.033c0,7.845 -0.862,21.754 -10.877,31.768c-6.955,6.955 -18.694,12.157 -29.571,12.185zm0.445,174.837c-46.54,0 -76.556,-22.171 -76.556,-53.049s27.846,-41.311 37.416,-44.787c18.276,-6.093 41.755,-6.982 45.677,-6.982c4.34,0 6.51,0 9.987,0.445c33.076,23.479 47.402,35.218 47.402,57.416c0,26.956 -22.171,46.957 -63.926,46.957z"/>
     <polygon stroke="null" id="svg_8" fill="#363636" points="-5546.650293469429,-3515.9792480468745 -5499.554102063179,-3515.9792480468745 -5499.554102063179,-3468.9113769531245 -5476.018945813179,-3468.9113769531245 -5476.018945813179,-3515.9792480468745 -5428.950098156929,-3515.9792480468745 -5428.950098156929,-3539.5144042968745 -5476.018945813179,-3539.5144042968745 -5476.018945813179,-3586.5822753906245 -5499.554102063179,-3586.5822753906245 -5499.554102063179,-3539.5144042968745 -5546.650293469429,-3539.5144042968745 "/>
     <path stroke="null" id="svg_9" fill="#363636" d="m-5287.718165,-3527.740665c0,-168.996 -137.005,-306 -306,-306c-168.996,0 -306,137.004 -306,306c0,168.995 137.004,306 306,306c168.995,0 306,-137.005 306,-306zm-584.182,0c0,-153.64 124.542,-278.182 278.182,-278.182s278.182,124.542 278.182,278.182s-124.542,278.182 -278.182,278.182s-278.182,-124.542 -278.182,-278.182z"/>
    </g>
   </g>
   <g stroke="null" id="svg_10"/>
   <g stroke="null" id="svg_11"/>
   <g stroke="null" id="svg_12"/>
   <g stroke="null" id="svg_13"/>
   <g stroke="null" id="svg_14"/>
   <g stroke="null" id="svg_15"/>
   <g stroke="null" id="svg_16"/>
   <g stroke="null" id="svg_17"/>
   <g stroke="null" id="svg_18"/>
   <g stroke="null" id="svg_19"/>
   <g stroke="null" id="svg_20"/>
   <g stroke="null" transform="matrix(0.05352244316038709,0,0,0.05352244316038709,315.88948568825793,205.31332285427442) " id="svg_21"/>
   <g stroke="null" transform="matrix(0.05352244316038709,0,0,0.05352244316038709,315.88948568825793,205.31332285427442) " id="svg_22"/>
   <g stroke="null" transform="matrix(0.05352244316038709,0,0,0.05352244316038709,315.88948568825793,205.31332285427442) " id="svg_23"/>
   <g stroke="null" transform="matrix(0.05352244316038709,0,0,0.05352244316038709,315.88948568825793,205.31332285427442) " id="svg_24"/>
  </g>
 </g>
</svg>