<svg width="12" height="12" xmlns="http://www.w3.org/2000/svg">

 <g>
  <title>background</title>
  <rect fill="none" id="canvas_background" height="14" width="14" y="-1" x="-1"/>
 </g>
 <g>
  <title>Layer 1</title>
  <g stroke="null" id="svg_1">
   <g stroke="null" id="Search_1_">
    <g stroke="null" id="svg_2">
     <path stroke="null" id="svg_3" fill="#838383" d="m11.66669,10.374523l-2.144345,-2.143608c0.587843,-0.842438 0.935227,-1.864502 0.935227,-2.968981c0,-2.86952 -2.326201,-5.195721 -5.195721,-5.195721s-5.19574,2.326201 -5.19574,5.195721s2.326201,5.195721 5.195721,5.195721c1.104479,0 2.126543,-0.347365 2.968981,-0.935227l2.143608,2.143608c0.357022,0.357003 0.935247,0.357003 1.292269,0c0.356266,-0.356285 0.356266,-0.934491 0,-1.291513zm-6.404858,-1.401367c-2.049344,0 -3.711221,-1.661877 -3.711221,-3.711221c0,-2.049344 1.661896,-3.711221 3.711221,-3.711221c2.049344,0 3.711221,1.661896 3.711221,3.711221c0,2.049344 -1.661877,3.711221 -3.711221,3.711221z"/>
    </g>
   </g>
  </g>
  <g id="svg_4"/>
  <g id="svg_5"/>
  <g id="svg_6"/>
  <g id="svg_7"/>
  <g id="svg_8"/>
  <g id="svg_9"/>
  <g id="svg_10"/>
  <g id="svg_11"/>
  <g id="svg_12"/>
  <g id="svg_13"/>
  <g id="svg_14"/>
  <g id="svg_15"/>
  <g id="svg_16"/>
  <g id="svg_17"/>
  <g id="svg_18"/>
 </g>
</svg>