<svg width="39" height="48" xmlns="http://www.w3.org/2000/svg">
 <defs>
  <style type="text/css">
   <![CDATA[
    .fil0 {fill:none}
    .fil1 {fill:#212121;fill-rule:nonzero}
   ]]>
  </style>
 </defs>
 <g>
  <title>background</title>
  <rect fill="none" id="canvas_background" height="50" width="41" y="-1" x="-1"/>
 </g>
 <g>
  <title>Layer 1</title>
  <g stroke="null" id="Layer_x0020_1">
   <metadata stroke="null" transform="translate(0.1587238311767578,0) translate(0,-0.15873241424560547) translate(53.235145568847656,0) translate(0,53.235145568847656) translate(-1004.5,0) translate(0,-1000) translate(959.9999389648438,0) translate(0,959.9999389648438) translate(0,0) scale(0.2724609971046448) translate(0,0) translate(0,0) scale(0.3010754883289337) translate(0,0) translate(0,0) scale(0.7619050145149231) translate(0,0) translate(-712.0000610351562,-640.0001831054688) scale(0.16820162534713745) translate(712.0000610351562,640.0001831054688) translate(830.91455078125,3306.9716796875) scale(1.3981183767318726) translate(-830.91455078125,-3306.9716796875) translate(2642.30908203125,317.3016357421875) scale(1.590598702430725) translate(-2642.30908203125,-317.3016357421875) translate(-386.79583740234375,2247.48583984375) scale(1.2287509441375732) translate(386.79583740234375,-2247.48583984375) translate(1733.212158203125,-218.91845703125) scale(1.0404707193374634) translate(-1733.212158203125,218.91845703125) translate(-382.20379638671875,1837.5966796875) scale(1.0051862001419067) translate(382.20379638671875,-1837.5966796875) " id="CorelCorpID_0Corel-Layer"/>
   <g stroke="null" id="_404760088">
    <rect stroke="null" x="-11.264904" y="-6.764902" height="61.529803" width="61.529803" class="fil0" id="_406186336"/>
    <rect stroke="null" height="46.147352" width="46.147352" y="0.926293" x="-3.573709" class="fil0" id="_406186216"/>
    <g stroke="null" id="svg_1">
     <path stroke="null" d="m5.027154,11.502269l-1.821583,34.610214l32.588864,0l-1.821547,-34.610214l-5.301147,0c-0.098116,-0.637558 -0.214896,-1.281181 -0.353039,-1.922854l6.56383,0l0.90962,0.000035l0.048046,0.912564l1.922749,36.533321l0.053156,1.010254l-1.010822,0l-34.610514,0l-1.010822,0l0.053156,-1.010254l1.922785,-36.533321l0.048046,-0.912564l0.90962,-0.000035l6.428392,0c-0.133068,0.635427 -0.243284,1.277564 -0.332883,1.922854l-5.185899,0l-0.000009,0zm19.77472,0l-10.716911,0c0.101948,-0.648665 0.228806,-1.291684 0.384159,-1.922854l9.931415,0c0.158333,0.631062 0.290905,1.274193 0.401335,1.922854l0.000003,0z" class="fil1" id="_406186048"/>
     <path stroke="null" d="m10.851124,16.309255c0.02452,-7.429033 2.102481,-12.45627 4.778654,-14.779951c1.148255,-0.996984 2.417764,-1.522763 3.709694,-1.559029c1.299351,-0.036478 2.588269,0.422305 3.766477,1.394699c2.640857,2.179729 4.765015,7.083018 5.04298,14.910462l-1.915331,0.067634c-0.256343,-7.219056 -2.082964,-11.631867 -4.344401,-13.498461c-0.808062,-0.666904 -1.661722,-0.98247 -2.497107,-0.959015c-0.842838,0.023668 -1.70065,0.392358 -2.507964,1.093326c-2.304886,2.001311 -4.095127,6.513266 -4.11763,13.330336l-1.915331,0l-0.000042,0.000001z" class="fil1" id="_406185976"/>
     <path stroke="null" d="m11.809343,14.386148c0.796174,0 1.517193,0.322878 2.039034,0.844752c0.521877,0.521877 0.844752,1.242857 0.844752,2.039067c0,0.79362 -0.322947,1.51375 -0.844896,2.036018c-0.52404,0.524361 -1.245128,0.848904 -2.03889,0.848904c-0.796706,0 -1.517758,-0.323019 -2.039812,-0.845001c-0.522195,-0.522267 -0.845142,-1.243638 -0.845142,-2.03992c0,-0.793834 0.324296,-1.515063 0.848763,-2.039211c0.522159,-0.521841 1.242079,-0.844611 2.036195,-0.844611l-0.000003,0.000003zm0.679538,2.204248c-0.173805,-0.17384 -0.414145,-0.281395 -0.679535,-0.281395c-0.26855,0 -0.510379,0.107519 -0.684219,0.281253c-0.171676,0.171569 -0.277882,0.411802 -0.277882,0.679712c0,0.265675 0.107697,0.506335 0.281785,0.680424c0.173982,0.173947 0.4145,0.281644 0.680316,0.281644c0.267662,0 0.507789,-0.106313 0.679394,-0.278024c0.173912,-0.174018 0.281537,-0.415846 0.281537,-0.684041c0,-0.265462 -0.10759,-0.505767 -0.281395,-0.679571l-0.000001,-0.000002z" class="fil1" id="_404760232"/>
     <path stroke="null" d="m27.191824,14.386148c0.796246,0 1.517226,0.322878 2.039067,0.844752c0.521877,0.521877 0.844752,1.242857 0.844752,2.039067c0,0.79362 -0.322947,1.51375 -0.844896,2.036018c-0.52404,0.524361 -1.245128,0.848904 -2.038926,0.848904c-0.79667,0 -1.51783,-0.323089 -2.039779,-0.845037c-0.522231,-0.522231 -0.845142,-1.243638 -0.845142,-2.039884c0,-0.793834 0.324296,-1.515063 0.848763,-2.039211c0.52209,-0.521841 1.242043,-0.844611 2.036159,-0.844611l0.000003,0.000003zm0.679568,2.204248c-0.173805,-0.17384 -0.414145,-0.281395 -0.679571,-0.281395c-0.26855,0 -0.510343,0.107519 -0.684186,0.281253c-0.171676,0.171569 -0.277882,0.411802 -0.277882,0.679712c0,0.26564 0.107697,0.506299 0.281785,0.680388c0.173982,0.173982 0.414533,0.281679 0.68028,0.281679c0.267733,0 0.507825,-0.106313 0.67943,-0.278024c0.173912,-0.174018 0.281537,-0.415846 0.281537,-0.684041c0,-0.265462 -0.10759,-0.505767 -0.281395,-0.679571l0.000002,-0.000001z" class="fil1" id="_404760184"/>
    </g>
   </g>
  </g>
 </g>
</svg>