<svg width="33" height="33" xmlns="http://www.w3.org/2000/svg">

 <g>
  <title>background</title>
  <rect fill="none" id="canvas_background" height="35" width="35" y="-1" x="-1"/>
 </g>
 <g>
  <title>Layer 1</title>
  <g stroke="null" id="svg_1">
   <g stroke="null" id="svg_2">
    <path stroke="null" id="svg_3" fill="#363636" d="m23.514218,13.24795c0,-0.165067 -0.002993,-0.328637 -0.010424,-0.49071c0.706345,-0.526418 1.318984,-1.185135 1.803761,-1.939054c-0.648347,0.291486 -1.344268,0.486274 -2.075897,0.568005c0.746489,-0.459493 1.318984,-1.194062 1.589623,-2.075843c-0.698915,0.423785 -1.472131,0.727138 -2.294471,0.884775c-0.658717,-0.749482 -1.598497,-1.226776 -2.637968,-1.244629c-1.995555,-0.032714 -3.613402,1.653554 -3.613402,3.766548c0,0.30036 0.031217,0.591846 0.093652,0.872855c-3.005199,-0.193291 -5.668398,-1.75763 -7.449869,-4.115979c-0.310783,0.565065 -0.489214,1.225279 -0.489214,1.93312c0,1.338335 0.637923,2.527906 1.607423,3.229761c-0.593289,-0.026727 -1.149427,-0.206654 -1.637144,-0.501134c0,0.016357 0,0.032714 0,0.049071c0,1.870686 1.246126,3.437965 2.899627,3.803753c-0.303353,0.086222 -0.623063,0.130856 -0.9517,0.129413c-0.233435,-0.001497 -0.459493,-0.026781 -0.679564,-0.074408c0.459493,1.533122 1.794834,2.652829 3.375477,2.689979c-1.237199,1.026001 -2.795552,1.638641 -4.487753,1.634204c-0.291486,0 -0.579925,-0.019297 -0.862485,-0.055004c1.600047,1.097416 3.498903,1.736783 5.540535,1.736783c6.645489,0.00155 10.279791,-5.782897 10.279791,-10.801505z"/>
    <path stroke="null" id="svg_4" fill="#363636" d="m32.857009,16.500001c0,-9.033558 -7.323503,-16.357007 -16.357007,-16.357007c-9.033558,0 -16.357007,7.323449 -16.357007,16.357007c0,9.033505 7.323449,16.357007 16.357007,16.357007c9.033505,0 16.357007,-7.323503 16.357007,-16.357007zm-31.227024,0c0,-8.212714 6.657302,-14.870016 14.870016,-14.870016s14.870016,6.657302 14.870016,14.870016s-6.657302,14.870016 -14.870016,14.870016s-14.870016,-6.657302 -14.870016,-14.870016z"/>
   </g>
  </g>
  <g id="svg_5"/>
  <g id="svg_6"/>
  <g id="svg_7"/>
  <g id="svg_8"/>
  <g id="svg_9"/>
  <g id="svg_10"/>
  <g id="svg_11"/>
  <g id="svg_12"/>
  <g id="svg_13"/>
  <g id="svg_14"/>
  <g id="svg_15"/>
  <g id="svg_16"/>
  <g id="svg_17"/>
  <g id="svg_18"/>
  <g id="svg_19"/>
 </g>
</svg>